<?xml version="1.0" encoding="UTF-8"?>
<svg width="100px" height="17px" viewBox="0 0 100 17" version="1.1" xmlns="http://www.w3.org/2000/svg" xmlns:xlink="http://www.w3.org/1999/xlink">
    <!-- Generator: Sketch 51.3 (57544) - http://www.bohemiancoding.com/sketch -->
    <title>Rectangle</title>
    <desc>Created with Sketch.</desc>
    <defs>
        <path d="M1.136,0.04 L4.208,0.04 L5.632,7.576 L7.168,0.04 L10.128,0.04 L10.352,13 L8.32,13 L8.08,4.376 L6.576,13 L4.768,13 L3.168,4.312 L2.976,13 L0.912,13 L1.136,0.04 Z M15.12,13.16 C14.1066616,13.16 13.3146695,12.9040026 12.744,12.392 C12.1733305,11.8799974 11.888,11.128005 11.888,10.136 L11.888,6.616 C11.888,5.62399504 12.1733305,4.87200256 12.744,4.36 C13.3146695,3.84799744 14.1066616,3.592 15.12,3.592 C16.1333384,3.592 16.9279971,3.85066408 17.504,4.368 C18.0800029,4.88533592 18.368,5.63466176 18.368,6.616 L18.368,10.136 C18.368,11.1173382 18.0800029,11.8666641 17.504,12.384 C16.9279971,12.9013359 16.1333384,13.16 15.12,13.16 Z M15.136,11.432 C15.3813346,11.432 15.5519995,11.3386676 15.648,11.152 C15.7440005,10.9653324 15.792,10.6853352 15.792,10.312 L15.792,6.44 C15.792,6.0666648 15.7440005,5.7866676 15.648,5.6 C15.5519995,5.4133324 15.3813346,5.32 15.136,5.32 C14.8906654,5.32 14.7173338,5.41599904 14.616,5.608 C14.5146662,5.80000096 14.464,6.07733152 14.464,6.44 L14.464,10.312 C14.464,10.6853352 14.5146662,10.9653324 14.616,11.152 C14.7173338,11.3386676 14.8906654,11.432 15.136,11.432 Z M22.672,13.096 C21.9893299,13.096 21.4613352,12.9973343 21.088,12.8 C20.7146648,12.6026657 20.4533341,12.3173352 20.304,11.944 C20.1546659,11.5706648 20.08,11.0853363 20.08,10.488 L20.08,5.464 L19.184,5.464 L19.184,3.752 L20.08,3.752 L20.08,0.936 L22.72,0.936 L22.72,3.752 L24.032,3.752 L24.032,5.464 L22.72,5.464 L22.72,10.232 C22.72,10.4880013 22.7919993,10.6773327 22.936,10.8 C23.0800007,10.9226673 23.2799987,10.984 23.536,10.984 C23.7493344,10.984 23.9839987,10.9626669 24.24,10.92 L24.24,12.968 C23.7279974,13.0533338 23.205336,13.096 22.672,13.096 Z M25.472,0.376 L28.096,0.376 L28.096,2.184 L25.472,2.184 L25.472,0.376 Z M25.488,3.752 L28.096,3.752 L28.096,13 L25.488,13 L25.488,3.752 Z M32.752,13.16 C31.7386616,13.16 30.9466695,12.9040026 30.376,12.392 C29.8053305,11.8799974 29.52,11.128005 29.52,10.136 L29.52,6.616 C29.52,5.62399504 29.8053305,4.87200256 30.376,4.36 C30.9466695,3.84799744 31.7386616,3.592 32.752,3.592 C33.7653384,3.592 34.5599971,3.85066408 35.136,4.368 C35.7120029,4.88533592 36,5.63466176 36,6.616 L36,10.136 C36,11.1173382 35.7120029,11.8666641 35.136,12.384 C34.5599971,12.9013359 33.7653384,13.16 32.752,13.16 Z M32.768,11.432 C33.0133346,11.432 33.1839995,11.3386676 33.28,11.152 C33.3760005,10.9653324 33.424,10.6853352 33.424,10.312 L33.424,6.44 C33.424,6.0666648 33.3760005,5.7866676 33.28,5.6 C33.1839995,5.4133324 33.0133346,5.32 32.768,5.32 C32.5226654,5.32 32.3493338,5.41599904 32.248,5.608 C32.1466662,5.80000096 32.096,6.07733152 32.096,6.44 L32.096,10.312 C32.096,10.6853352 32.1466662,10.9653324 32.248,11.152 C32.3493338,11.3386676 32.5226654,11.432 32.768,11.432 Z M37.44,3.752 L40.048,3.752 L40.048,4.68 C40.773337,3.95466304 41.5146629,3.592 42.272,3.592 C42.8266694,3.592 43.2506652,3.791998 43.544,4.192 C43.8373348,4.592002 43.984,5.1119968 43.984,5.752 L43.984,13 L41.392,13 L41.392,6.12 C41.392,5.88533216 41.3520004,5.71200056 41.272,5.6 C41.1919996,5.48799944 41.056001,5.432 40.864,5.432 C40.6506656,5.432 40.3786683,5.54399888 40.048,5.768 L40.048,13 L37.44,13 L37.44,3.752 Z M50.278,13.06 C49.8979981,13.06 49.6010011,12.964001 49.387,12.772 C49.1729989,12.579999 49.066,12.2980019 49.066,11.926 L49.066,10.606 C49.066,10.2339981 49.1729989,9.95200096 49.387,9.76 C49.6010011,9.56799904 49.8979981,9.472 50.278,9.472 C50.6580019,9.472 50.9559989,9.56899903 51.172,9.763 C51.3880011,9.95700097 51.496,10.2379982 51.496,10.606 L51.496,11.926 C51.496,12.2940018 51.3880011,12.574999 51.172,12.769 C50.9559989,12.963001 50.6580019,13.06 50.278,13.06 Z M50.284,12.412 C50.3760005,12.412 50.4399998,12.3770003 50.476,12.307 C50.5120002,12.2369996 50.53,12.1320007 50.53,11.992 L50.53,10.54 C50.53,10.3999993 50.5120002,10.2950003 50.476,10.225 C50.4399998,10.1549996 50.3760005,10.12 50.284,10.12 C50.1919995,10.12 50.1270002,10.1559996 50.089,10.228 C50.0509998,10.3000004 50.032,10.4039993 50.032,10.54 L50.032,11.992 C50.032,12.1320007 50.0509998,12.2369996 50.089,12.307 C50.1270002,12.3770003 50.1919995,12.412 50.284,12.412 Z M52.162,10.192 L51.832,10.192 L51.832,9.532 L52.162,9.532 L52.162,9.274 C52.162,9.04199884 52.1839998,8.85500071 52.228,8.713 C52.2720002,8.57099929 52.3629993,8.4600004 52.501,8.38 C52.6390007,8.2999996 52.8419987,8.26 53.11,8.26 C53.2780008,8.26 53.4339993,8.2699999 53.578,8.29 L53.578,9.016 C53.4899996,8.9959999 53.4200003,8.986 53.368,8.986 C53.2159992,8.986 53.14,9.0759991 53.14,9.256 L53.14,9.532 L53.578,9.532 L53.578,10.192 L53.14,10.192 L53.14,13 L52.162,13 L52.162,10.192 Z M59.874,2.168 L57.922,2.168 L57.922,0.04 L64.69,0.04 L64.69,2.168 L62.754,2.168 L62.754,13 L59.874,13 L59.874,2.168 Z M65.698,0.04 L68.29,0.04 L68.29,4.568 C68.9406699,3.91733008 69.6979957,3.592 70.562,3.592 C71.095336,3.592 71.5113318,3.791998 71.81,4.192 C72.1086682,4.592002 72.258,5.1119968 72.258,5.752 L72.258,13 L69.666,13 L69.666,6.12 C69.666,5.88533216 69.6260004,5.71200056 69.546,5.6 C69.4659996,5.48799944 69.330001,5.432 69.138,5.432 C68.9139989,5.432 68.631335,5.54399888 68.29,5.768 L68.29,13 L65.698,13 L65.698,0.04 Z M73.826,0.376 L76.45,0.376 L76.45,2.184 L73.826,2.184 L73.826,0.376 Z M73.842,3.752 L76.45,3.752 L76.45,13 L73.842,13 L73.842,3.752 Z M78.066,3.752 L80.674,3.752 L80.674,4.68 C81.399337,3.95466304 82.1406629,3.592 82.898,3.592 C83.4526694,3.592 83.8766652,3.791998 84.17,4.192 C84.4633348,4.592002 84.61,5.1119968 84.61,5.752 L84.61,13 L82.018,13 L82.018,6.12 C82.018,5.88533216 81.9780004,5.71200056 81.898,5.6 C81.8179996,5.48799944 81.682001,5.432 81.49,5.432 C81.2766656,5.432 81.0046683,5.54399888 80.674,5.768 L80.674,13 L78.066,13 L78.066,3.752 Z M89.186,16.2 C88.119328,16.2 87.282003,16.0426682 86.674,15.728 C86.065997,15.4133318 85.762,14.9413365 85.762,14.312 C85.762,13.5226627 86.2419952,12.9093355 87.202,12.472 C86.3486624,12.2373322 85.922,11.7466704 85.922,11 C85.922,10.6479982 86.0046658,10.338668 86.17,10.072 C86.3353342,9.805332 86.5939982,9.51733488 86.946,9.208 C86.337997,8.66399728 86.034,7.86400528 86.034,6.808 C86.034,5.77332816 86.3193305,4.97866944 86.89,4.424 C87.4606695,3.86933056 88.279328,3.592 89.346,3.592 C90.2953381,3.592 91.0259974,3.8319976 91.538,4.312 C91.7833346,3.91733136 92.1566642,3.59733456 92.658,3.352 L92.994,3.192 L93.602,4.44 C93.4526659,4.4933336 93.2260015,4.586666 92.922,4.72 C92.6179985,4.853334 92.3646677,4.97866608 92.162,5.096 C92.4073346,5.60800256 92.53,6.1839968 92.53,6.824 C92.53,7.8373384 92.2606694,8.62133056 91.722,9.176 C91.1833306,9.73066944 90.3913386,10.008 89.346,10.008 C88.7699971,10.008 88.2420024,9.92266752 87.762,9.752 C87.6019992,9.97600112 87.522,10.1626659 87.522,10.312 C87.522,10.4400006 87.588666,10.541333 87.722,10.616 C87.855334,10.690667 88.0819984,10.7493331 88.402,10.792 L90.834,11.064 C91.6126706,11.1493338 92.1913314,11.3999979 92.57,11.816 C92.9486686,12.2320021 93.138,12.7866632 93.138,13.48 C93.138,14.3866712 92.8260031,15.0666644 92.202,15.52 C91.5779969,15.9733356 90.5726736,16.2 89.186,16.2 Z M89.346,8.456 C89.6340014,8.456 89.8259995,8.33866784 89.922,8.104 C90.0180005,7.86933216 90.066,7.43733648 90.066,6.808 C90.066,6.17866352 90.0180005,5.7440012 89.922,5.504 C89.8259995,5.2639988 89.6340014,5.144 89.346,5.144 C89.0579986,5.144 88.8660005,5.26133216 88.77,5.496 C88.6739995,5.73066784 88.626,6.1679968 88.626,6.808 C88.626,7.42666976 88.6739995,7.8559988 88.77,8.096 C88.8660005,8.3360012 89.0579986,8.456 89.346,8.456 Z M89.522,14.312 C90.1513365,14.312 90.6126652,14.2586672 90.906,14.152 C91.1993348,14.0453328 91.346,13.8533347 91.346,13.576 C91.346,13.3519989 91.2473343,13.1893338 91.05,13.088 C90.8526657,12.9866662 90.487336,12.9093336 89.954,12.856 L88.242,12.68 C87.8793315,12.9573347 87.698,13.2453318 87.698,13.544 C87.698,13.810668 87.8393319,14.0053327 88.122,14.128 C88.4046681,14.2506673 88.8713301,14.312 89.522,14.312 Z M97.042,13.16 C96.2206626,13.16 95.5406694,12.9760018 95.002,12.608 C94.4633306,12.2399982 94.0286683,11.6506707 93.698,10.84 L95.474,10.056 C95.6446675,10.4826688 95.8446655,10.8133322 96.074,11.048 C96.3033345,11.2826678 96.5566653,11.4 96.834,11.4 C97.2393354,11.4 97.442,11.2400016 97.442,10.92 C97.442,10.6853322 97.3620008,10.4746676 97.202,10.288 C97.0419992,10.1013324 96.695336,9.78933552 96.162,9.352 L95.49,8.792 C94.9353306,8.32266432 94.5326679,7.89600192 94.282,7.512 C94.0313321,7.12799808 93.906,6.669336 93.906,6.136 C93.906,5.64533088 94.0366654,5.20800192 94.298,4.824 C94.5593346,4.43999808 94.9086645,4.13866776 95.346,3.92 C95.7833355,3.70133224 96.2526642,3.592 96.754,3.592 C97.5113371,3.592 98.1433308,3.79733128 98.65,4.208 C99.1566692,4.61866872 99.5166656,5.20799616 99.73,5.976 L98.05,6.744 C97.9433328,6.40266496 97.7780011,6.09600136 97.554,5.824 C97.3299989,5.55199864 97.084668,5.416 96.818,5.416 C96.6473325,5.416 96.5113338,5.46399952 96.41,5.56 C96.3086662,5.65600048 96.258,5.7839992 96.258,5.944 C96.258,6.13600096 96.361999,6.34399888 96.57,6.568 C96.778001,6.79200112 97.1059978,7.08533152 97.554,7.448 L98.21,8.024 C98.743336,8.47200224 99.1539986,8.89066472 99.442,9.28 C99.7300014,9.66933528 99.874,10.1253307 99.874,10.648 C99.874,11.1706693 99.7433346,11.6213314 99.482,12 C99.2206654,12.3786686 98.8740022,12.6666657 98.442,12.864 C98.0099978,13.0613343 97.5433358,13.16 97.042,13.16 Z" id="path-1"></path>
        <linearGradient x1="0%" y1="50%" x2="72.5456105%" y2="50%" id="linearGradient-3">
            <stop stop-color="#EF3E36" offset="0%"></stop>
            <stop stop-color="#FFA8A0" offset="100%"></stop>
        </linearGradient>
    </defs>
    <g id="Page-1" stroke="none" stroke-width="1" fill="none" fill-rule="evenodd">
        <g id="Artboard" transform="translate(-66.000000, -85.000000)">
            <g id="Rectangle" transform="translate(66.000000, 85.000000)">
                <mask id="mask-2" fill="white">
                    <use xlink:href="#path-1"></use>
                </mask>
                <use id="Mask" fill="#FFFFFF" xlink:href="#path-1"></use>
                <rect fill="url(#linearGradient-3)" fill-rule="nonzero" mask="url(#mask-2)" x="56" y="-3" width="45" height="19"></rect>
            </g>
        </g>
    </g>
</svg>